# xmcd
#
# Track frame offsets:
# 150
# 26683
# 49831
# 77823
# 101772
# 127581
# 149349
# 178613
# 203196
# 226330
# 247012
# 264183
#
# Disc length: 3856 seconds
#
#
# Revision: 0
# Processed by: cddbd v1.5.2PL0 Copyright (c) Steve Scherf et al.
# Submitted via: FreeRIP 2.951 
#
DISCID=9e0f0e0c
DTITLE=Bon Jovi - These Days
DYEAR=1900
DGENRE=Rock
TTITLE0=It's Hard Letting You Go
TTITLE1=Hearts Breaking Even
TTITLE2=Hey God !
TTITLE3=If That's What It Takes
TTITLE4=My Guitar Lies Bleeding In My Arms
TTITLE5=Something For The Pain
TTITLE6=These Days
TTITLE7=Something To Believe In
TTITLE8=This Ain't A Love Song
TTITLE9=Damned
TTITLE10=Diamond Ring
TTITLE11=Lie To Me
EXTD=
EXTT0=
EXTT1=
EXTT2=
EXTT3=
EXTT4=
EXTT5=
EXTT6=
EXTT7=
EXTT8=
EXTT9=
EXTT10=
EXTT11=
PLAYORDER=
